<?xml version="1.0" encoding="UTF-8" standalone="no"?>
<!-- Created with Inkscape (http://www.inkscape.org/) -->

<svg
   xmlns:dc="http://purl.org/dc/elements/1.1/"
   xmlns:cc="http://creativecommons.org/ns#"
   xmlns:rdf="http://www.w3.org/1999/02/22-rdf-syntax-ns#"
   xmlns:svg="http://www.w3.org/2000/svg"
   xmlns="http://www.w3.org/2000/svg"
   xmlns:xlink="http://www.w3.org/1999/xlink"
   xmlns:sodipodi="http://sodipodi.sourceforge.net/DTD/sodipodi-0.dtd"
   xmlns:inkscape="http://www.inkscape.org/namespaces/inkscape"
   version="1.1"
   id="svg2"
   xml:space="preserve"
   width="297mm"
   height="210mm"
   viewBox="0 0 1122.5197 793.70082"
   sodipodi:docname="business_card_90x55mm_A4.svg"
   inkscape:version="0.92.3 (2405546, 2018-03-11)"><title
   id="title1015">WikiClubWest business card</title><metadata
   id="metadata8"><rdf:RDF><cc:Work
       rdf:about=""><dc:format>image/svg+xml</dc:format><dc:type
         rdf:resource="http://purl.org/dc/dcmitype/StillImage" /><dc:title>WikiClubWest business card</dc:title><dc:date>2018-09-23</dc:date><dc:creator><cc:Agent><dc:title>Sam Wilson</dc:title></cc:Agent></dc:creator><dc:rights><cc:Agent><dc:title>CC-BY-SA</dc:title></cc:Agent></dc:rights><dc:source /><cc:license
         rdf:resource="http://creativecommons.org/licenses/by-sa/4.0/" /></cc:Work><cc:License
       rdf:about="http://creativecommons.org/licenses/by-sa/4.0/"><cc:permits
         rdf:resource="http://creativecommons.org/ns#Reproduction" /><cc:permits
         rdf:resource="http://creativecommons.org/ns#Distribution" /><cc:requires
         rdf:resource="http://creativecommons.org/ns#Notice" /><cc:requires
         rdf:resource="http://creativecommons.org/ns#Attribution" /><cc:permits
         rdf:resource="http://creativecommons.org/ns#DerivativeWorks" /><cc:requires
         rdf:resource="http://creativecommons.org/ns#ShareAlike" /></cc:License></rdf:RDF></metadata><defs
   id="defs6"><clipPath
   clipPathUnits="userSpaceOnUse"
   id="clipPath42"><path
     d="M 236,301 V 404 H 416 V 301 Z"
     id="path40"
     inkscape:connector-curvature="0" /></clipPath><clipPath
   clipPathUnits="userSpaceOnUse"
   id="clipPath54"><path
     d="M 415,301 V 404 H 595 V 301 Z"
     id="path52"
     inkscape:connector-curvature="0" /></clipPath><clipPath
   clipPathUnits="userSpaceOnUse"
   id="clipPath66"><path
     d="M 594,301 V 404 H 774 V 301 Z"
     id="path64"
     inkscape:connector-curvature="0" /></clipPath><clipPath
   clipPathUnits="userSpaceOnUse"
   id="clipPath78"><path
     d="M 773,301 V 404 H 917 V 301 Z"
     id="path76"
     inkscape:connector-curvature="0" /></clipPath><clipPath
   clipPathUnits="userSpaceOnUse"
   id="clipPath90"><path
     d="m 236.688,233.121 h 250.66 v 68.5898 h -250.66 z"
     id="path88"
     inkscape:connector-curvature="0" /></clipPath><clipPath
   clipPathUnits="userSpaceOnUse"
   id="clipPath102"><path
     d="M 487.047,233.121 H 737.86 v 68.5898 H 487.047 Z"
     id="path100"
     inkscape:connector-curvature="0" /></clipPath><clipPath
   clipPathUnits="userSpaceOnUse"
   id="clipPath114"><path
     d="m 737.566,233.121 h 179.172 v 68.5898 H 737.566 Z"
     id="path112"
     inkscape:connector-curvature="0" /></clipPath><clipPath
   clipPathUnits="userSpaceOnUse"
   id="clipPath230"><path
     d="m 1143.92,1774.61 h 543.359 v 21.8633 H 1143.92 Z"
     id="path228"
     inkscape:connector-curvature="0" /></clipPath><clipPath
   clipPathUnits="userSpaceOnUse"
   id="clipPath246"><path
     d="m 671.059,1732.69 h 1489.47 v 28.1367 H 671.059 Z"
     id="path244"
     inkscape:connector-curvature="0" /></clipPath><clipPath
   clipPathUnits="userSpaceOnUse"
   id="clipPath262"><path
     d="m 1143.92,83.8086 h 543.359 v 21.8711 H 1143.92 Z"
     id="path260"
     inkscape:connector-curvature="0" /></clipPath><clipPath
   clipPathUnits="userSpaceOnUse"
   id="clipPath278"><path
     d="m 671.059,41.8984 h 1489.47 V 70.0312 H 671.059 Z"
     id="path276"
     inkscape:connector-curvature="0" /></clipPath>




</defs><sodipodi:namedview
   pagecolor="#ffffff"
   bordercolor="#666666"
   borderopacity="1"
   objecttolerance="10"
   gridtolerance="10"
   guidetolerance="10"
   inkscape:pageopacity="0"
   inkscape:pageshadow="2"
   inkscape:window-width="1853"
   inkscape:window-height="1016"
   id="namedview4"
   showgrid="false"
   inkscape:zoom="0.96835718"
   inkscape:cx="561.25984"
   inkscape:cy="396.85039"
   inkscape:window-x="1987"
   inkscape:window-y="27"
   inkscape:window-maximized="1"
   inkscape:current-layer="layer3"
   units="mm"
   showguides="false"
   inkscape:guide-bbox="true"
   inkscape:snap-to-guides="true"
   inkscape:snap-grids="true"><sodipodi:guide
     position="18.897638,0"
     orientation="1,0"
     id="guide1025"
     inkscape:locked="false"
     inkscape:label=""
     inkscape:color="rgb(0,0,255)" /><sodipodi:guide
     position="0,226.77166"
     orientation="0,1"
     id="guide1027"
     inkscape:locked="false"
     inkscape:label=""
     inkscape:color="rgb(0,0,255)" /><sodipodi:guide
     position="1039.3701,0"
     orientation="1,0"
     id="guide1029"
     inkscape:locked="false"
     inkscape:label=""
     inkscape:color="rgb(0,0,255)" /><sodipodi:guide
     position="0,18.897638"
     orientation="0,1"
     id="guide1031"
     inkscape:locked="false"
     inkscape:label=""
     inkscape:color="rgb(0,0,255)" /><sodipodi:guide
     position="359.05501,0"
     orientation="1,0"
     id="guide1035"
     inkscape:locked="false"
     inkscape:label=""
     inkscape:color="rgb(0,0,255)" /><sodipodi:guide
     position="0,642.5197"
     orientation="0,1"
     id="guide1037"
     inkscape:locked="false"
     inkscape:label=""
     inkscape:color="rgb(0,0,255)" /><sodipodi:guide
     position="699.21262,0"
     orientation="1,0"
     id="guide1039"
     inkscape:locked="false"
     inkscape:label=""
     inkscape:color="rgb(0,0,255)" /><sodipodi:guide
     position="0,434.64568"
     orientation="0,1"
     id="guide931"
     inkscape:locked="false"
     inkscape:label=""
     inkscape:color="rgb(0,0,255)" /></sodipodi:namedview><g
   inkscape:groupmode="layer"
   id="layer2"
   inkscape:label="business_card"
   transform="matrix(1.3333333,0,0,-1.3333333,0,793.7008)"
   style="display:inline" />







<text
   xml:space="preserve"
   style="font-style:normal;font-weight:normal;font-size:40px;line-height:125%;font-family:sans-serif;letter-spacing:0px;word-spacing:0px;fill:#000000;fill-opacity:1;stroke:none;stroke-width:1px;stroke-linecap:butt;stroke-linejoin:miter;stroke-opacity:1"
   x="331.47003"
   y="610.33441"
   id="text1069"><tspan
     sodipodi:role="line"
     id="tspan1067"
     x="331.47003"
     y="645.72504" /></text>




<g
   inkscape:groupmode="layer"
   id="layer3"
   inkscape:label="cropmarks"
   transform="translate(0,548.0315)"
   style="display:inline"><path
     id="path4868"
     style="fill:none;fill-rule:evenodd;stroke:#000000;stroke-width:0.37795276;stroke-linecap:butt;stroke-linejoin:miter;stroke-opacity:1;stroke-miterlimit:4;stroke-dasharray:none"
     d="m 359.055,-414.21117 c 0,4.56099 0,9.12198 0,13.68297 m 340.1576,-12.13396 c 0,4.30282 0,8.60564 0,12.90846 m -682.94794,2.90332 c -4.044651,0 -8.0893019,0 -12.1339528,0 m 14.7669298,-24.07319 c 0,6.81961 0,13.63922 0,20.45883 m 1020.472463,-0.5798 c 0,-4.47493 0,-8.94987 0,-13.4248 m 4.1498,17.61896 c 3.8725,0 7.7451,0 11.6176,0 m -12.6503,207.87402 h 16.5229 m -13.9412,207.87401 h 16.5229 m -17.2974,207.87402 h 17.5555 m -22.4798,3.92382 v 11.61762 M 699.2126,231.21183 v 10.58494 M 359.055,230.69549 v 12.39212 M 18.897637,230.17915 v 11.61762 M 3.6143688,226.77167 H 16.00649 M 3.6143688,18.89765 H 16.00649 M 15.231983,-188.97636 H 3.0980304" /></g><g
   id="g1039"
   inkscape:tile-cx="184.53228"
   inkscape:tile-cy="671.08675"
   inkscape:tile-w="307.49407"
   inkscape:tile-h="184.75373"
   inkscape:tile-x0="30.78525"
   inkscape:tile-y0="578.70989"
   transform="translate(3.7259978,-416.00392)"><g
     transform="matrix(1.0177516,0,0,1.0177516,24.150867,531.6961)"
     style="display:inline;fill:#cccccc;fill-opacity:1"
     id="g5391"><polygon
       style="fill:#cccccc;fill-opacity:1;stroke:none"
       id="polygon91-7"
       transform="matrix(1.1517917,0,0,1.1517917,-1.5312076,16.077462)"
       points="119.007,33.396 119.099,33.335 118.937,33.254 " /><polygon
       style="fill:#cccccc;fill-opacity:1;stroke:none"
       id="polygon93-4"
       transform="matrix(1.1517917,0,0,1.1517917,-1.5312076,16.077462)"
       points="94.942,27.646 94.942,28.072 95.369,27.221 94.304,27.221 " /><polygon
       style="fill:#cccccc;fill-opacity:1;stroke:none"
       id="polygon95-0"
       transform="matrix(1.1517917,0,0,1.1517917,-1.5312076,16.077462)"
       points="85.146,37.23 85.785,37.23 85.359,36.377 " /><polygon
       style="fill:#cccccc;fill-opacity:1;stroke:none"
       id="polygon97-9"
       transform="matrix(1.1517917,0,0,1.1517917,-1.5312076,16.077462)"
       points="83.869,37.23 84.72,37.23 84.294,37.869 85.146,37.442 84.508,37.017 84.72,36.377 " /><polygon
       style="fill:#cccccc;fill-opacity:1;stroke:none"
       id="polygon99-4"
       transform="matrix(1.1517917,0,0,1.1517917,-1.5312076,16.077462)"
       points="118.156,32.118 118.368,32.544 119.221,31.906 " /><polygon
       style="fill:#cccccc;fill-opacity:1;stroke:none"
       id="polygon101-8"
       transform="matrix(1.1517917,0,0,1.1517917,-1.5312076,16.077462)"
       points="88.554,35.525 88.98,35.313 88.554,35.1 " /><polygon
       style="fill:#cccccc;fill-opacity:1;stroke:none"
       id="polygon103-8"
       transform="matrix(1.1517917,0,0,1.1517917,-1.5312076,16.077462)"
       points="110.063,34.035 110.276,34.674 110.489,34.887 " /><polygon
       style="fill:#cccccc;fill-opacity:1;stroke:none"
       id="polygon105-2"
       transform="matrix(1.1517917,0,0,1.1517917,-1.5312076,16.077462)"
       points="87.063,34.674 86.637,34.461 87.063,35.1 " /><polygon
       style="fill:#cccccc;fill-opacity:1;stroke:none"
       id="polygon107-4"
       transform="matrix(1.1517917,0,0,1.1517917,-1.5312076,16.077462)"
       points="88.554,30.841 88.128,32.118 88.98,32.118 " /><polygon
       style="fill:#cccccc;fill-opacity:1;stroke:none"
       id="polygon109-5"
       transform="matrix(1.1517917,0,0,1.1517917,-1.5312076,16.077462)"
       points="83.656,37.017 83.869,36.59 83.017,36.804 " /><polygon
       style="fill:#cccccc;fill-opacity:1;stroke:none"
       id="polygon111-5"
       transform="matrix(1.1517917,0,0,1.1517917,-1.5312076,16.077462)"
       points="108.359,35.525 108.999,36.165 108.572,35.1 " /><polygon
       style="fill:#cccccc;fill-opacity:1;stroke:none"
       id="polygon309-5"
       transform="matrix(1.1517917,0,0,1.1517917,-1.5312076,16.077462)"
       points="6.989,109.211 6.989,111.341 8.693,114.109 8.693,113.044 " /><polygon
       style="fill:#cccccc;fill-opacity:1;stroke:none"
       id="polygon311-4"
       transform="matrix(1.1517917,0,0,1.1517917,-1.5312076,16.077462)"
       points="23.813,74.285 22.748,75.776 23.387,75.776 " /><path
       inkscape:connector-curvature="0"
       style="fill:#cccccc;fill-opacity:1;stroke:none"
       id="path5269"
       d="m 131.38125,56.75625 0.21875,-0.75 -0.46875,-0.25 v 0.25 z" /><path
       inkscape:connector-curvature="0"
       style="fill:#cccccc;fill-opacity:1;stroke:none;stroke-width:0.2;stroke-linecap:round;stroke-linejoin:round;stroke-miterlimit:4;stroke-dasharray:0.2, 0.20000000000000001;stroke-dashoffset:0;stroke-opacity:1"
       id="path5267"
       d="m 113.69375,46.19375 v 0.5 l -0.96875,-0.25 0.5,1.21875 0.96875,0.5 -0.4375,-0.0625 -1.28125,-0.1875 0.25,0.75 -0.5,0.46875 -0.25,-0.46875 -0.25,1.46875 -0.71875,-1.46875 -0.5,0.25 0.5,-1.25 -1.46875,1 -0.25,0.46875 0.5,0.5 -1,0.5 -0.25,-1.21875 h -0.46875 l 0.46875,-0.5 h -0.46875 l 0.46875,-0.5 -0.71875,0.5 -0.75,-0.25 v 0.5 l -0.21875,-0.5 v 0.5 l 1.46875,0.71875 -1,0.75 0.25,0.71875 -0.71875,0.5 0.46875,1 H 106.35 v 1.21875 l -0.75,-0.75 0.25,-0.96875 -0.96875,0.25 v -0.75 l -0.75,1.96875 0.25,-2.21875 0.5,-0.71875 -1,-0.5 v 2.6875 L 103.1625,52.35 l -0.5,0.96875 -0.25,-0.75 -0.5,0.5 0.25,-0.96875 -0.96875,0.96875 0.5,0.25 -1.46875,0.71875 0.71875,1 h 0.75 l -1,0.71875 1.46875,0.5 0.25,-0.5 0.5,0.25 -1,1 1.25,0.46875 h -1.25 l -0.46875,-0.71875 -1,0.71875 -0.71875,-1.71875 -0.5,0.25 0.25,1 -1.46875,0.25 0.5,0.21875 -0.25,0.75 1.46875,-0.96875 -1.46875,1.21875 0.46875,0.46875 1.25,-0.71875 v 0.5 h 0.46875 l -0.71875,0.71875 1.46875,1.21875 -1.21875,-0.96875 -0.5,0.5 -0.5,-1 -0.96875,-0.25 V 58.475 l -0.75,0.46875 -0.46875,1 -0.25,-0.5 -0.25,0.75 -0.96875,-0.25 0.21875,0.25 -0.96875,0.71875 0.5,0.25 -0.75,0.25 1,2.6875 0.21875,-0.40625 V 63.85 l 0.5,-0.71875 -0.40625,0.40625 0.65625,-1.15625 0.71875,-0.46875 -0.46875,0.46875 h 0.71875 l -0.96875,0.75 -0.25,1.71875 h 0.5 l -1,0.46875 0.5,0.25 -0.5,0.25 -0.46875,-1.21875 -0.5,2.21875 1.71875,-0.25 0.96875,0.46875 0.5,0.25 1.21875,-0.25 -1.21875,0.5 -0.5,-0.5 -2.1875,0.25 -0.5,-0.46875 -0.5,0.46875 0.4375,0.28125 -1.15625,0.21875 0.71875,-0.25 -0.71875,-0.25 -0.75,-0.96875 -1.71875,-0.75 0.75,0.75 h -0.5 l 0.5,0.71875 -1,-0.71875 v 0.25 l -1.21875,-0.5 h 0.5 l -0.25,-0.5 h 0.5 l -1,-0.46875 v 0.46875 l -0.71875,-0.25 0.25,0.5 -0.5,-0.5 0.5,0.75 -0.5,0.25 0.96875,0.25 0.25,0.46875 -0.71875,-0.21875 0.71875,0.46875 h -0.5 -0.21875 -0.96875 l 1.21875,0.75 H 87.225 l 0.5,0.71875 0.21875,-0.46875 0.75,0.25 -1,0.71875 1.71875,0.5 0.5,1.46875 0.96875,-0.5 v -0.5 l 0.5,0.25 -1.21875,1.25 0.5,0.46875 -0.75,-0.25 1.21875,2.21875 -2.1875,-2.21875 -0.75,0.25 1,1.71875 -0.5,-0.25 -0.5,1.25 v 1.21875 L 86.725,74.6625 l -0.71875,-2.46875 -1,-0.71875 V 69.50625 H 84.2875 l -0.75,-0.75 0.25,-0.96875 0.71875,-0.25 -0.46875,-0.71875 -0.75,0.21875 -1.46875,2.46875 0.75,0.71875 L 80.6,70.00625 80.35,70.725 l 0.5,1 -1,-0.5 v 0.5 l -0.96875,0.21875 -0.75,1 0.5,0.25 -1.21875,0.96875 -0.25,2.21875 0.71875,1.71875 -0.46875,1.71875 1.71875,0.21875 v 1 l -3.4375,2.4375 -1,0.25 -0.71875,1 0.5,0.71875 -1.25,0.25 0.25,0.96875 -1.21875,2.21875 -2.9375,3.6875 -6.875,2.9375 -1.71875,0.25 h -1.71875 l -0.71875,0.5 -1,0.71875 -0.71875,-0.71875 -2.21875,-0.5 0.25,0.5 V 96.475 l -0.25,-0.21875 -0.5,-0.25 -0.25,0.25 -1.6875,2.1875 -5.15625,1 v -0.5 l -1.96875,1.21875 0.25,0.5 h -0.75 l -0.5,0.96875 -1.21875,0.25 v -0.25 l -1.96875,1 -1.46875,-0.75 -0.25,-0.71875 -1.6875,0.96875 -0.75,-0.25 -0.5,-0.25 0.75,-1.21875 h -0.5 l -1.21875,1.46875 0.25,0.25 h -0.5 l -2.46875,1.21875 -0.71875,-0.5 -0.25,1.25 -1.96875,0.96875 -0.71875,1.46875 -1.21875,0.25 -1.25,1.96875 -4.65625,1.21875 -1.96875,1.21875 -0.25,1.46875 -0.46875,0.25 -0.5,-0.25 0.25,1 -0.75,1.21875 0.5,0.5 -0.5,-0.25 0.25,0.5 -0.96875,1.21875 -0.5,-0.75 -1.21875,0.75 0.5,-1.71875 -0.5,0.5 -0.25,-1.71875 0.96875,-2.9375 -1.71875,0.46875 -2.4375,5.90625 1.21875,3.1875 -0.46875,1.46875 0.21875,2.9375 -2.4375,3.4375 -0.5,4.40625 1.96875,3.1875 -0.25,0.5 0.5,1.96875 0.96875,0.71875 2.71875,5.40625 0.71875,0.25 0.25,1.21875 h -0.75 l 0.25,2.6875 -1.21875,1.46875 -1.21875,-1.9375 -0.25,-2.71875 v 1.25 l -1.21875,0.96875 0.25,-2.6875 -1.96875,-3.1875 -0.75,1.9375 0.5,0.5 V 143.35 l 0.71875,3.65625 2.46875,1.96875 -0.25,2.21875 -1.46875,0.71875 -0.25,-1.71875 -0.25,1.5 -0.46875,-2.96875 -0.25,1.46875 -1,-3.90625 0.25,3.1875 -0.71875,-0.5 v -2.6875 l -0.25,1.96875 -1,-0.75 6.375,9.3125 1.5,3.9375 -0.5,1.21875 0.5,2.46875 2.6875,3.1875 0.71875,1.46875 -0.21875,0.96875 2.1875,2.9375 1,3.4375 -0.25,4.4375 V 181.35 l 0.71875,3.9375 L 27.6,195.6 l 0.25,3.65625 1.21875,-0.71875 v 0.46875 l -1.21875,0.25 0.25,1.25 -0.5,0.71875 0.25,1.71875 -0.96875,1.96875 0.71875,5.625 -2.6875,3.1875 H 23.69375 L 22.225,212.75625 v 5.15625 l 0.96875,2.6875 0.25,-0.5 1.46875,-0.21875 2.6875,1.46875 2.21875,3.4375 2.9375,0.96875 0.25,-0.75 0.96875,0.75 h -1.21875 l 1.96875,1.21875 0.75,-0.71875 1.46875,0.71875 3.40625,-0.46875 1.96875,1.21875 0.5,-1 2.21875,0.75 0.46875,-0.25 -1.21875,-0.5 0.5,-0.96875 0.5,-0.25 -0.25,1 h 1.9375 l -0.21875,-0.75 1.71875,-0.25 0.21875,-1.46875 2.21875,-0.96875 0.25,-1 1.21875,-0.5 -0.5,-0.46875 3.21875,0.96875 0.21875,-0.96875 1,0.25 v -1 l 1.21875,0.25 -0.96875,-0.96875 3.40625,-3.1875 h 0.75 l 3.1875,0.46875 1.21875,-0.96875 6.15625,-0.75 3.1875,1 1.71875,-0.75 0.96875,1.71875 h 1.21875 l 0.5,-0.96875 1.71875,0.46875 0.25,-0.71875 3.1875,-0.25 0.71875,0.5 0.25,0.96875 1.71875,-1.21875 1.21875,0.5 3.4375,-3.4375 1,-3.9375 L 93.35,208.1 97.75625,206.63125 106.6,201.475 l 1.96875,-0.5 3.65625,0.5 4.1875,-0.25 7.84375,-2.46875 L 128.85,196.475 V 55.5375 a 0.750075,0.75630538 0 0 1 0.15625,-0.5 h -0.84375 l -0.46875,-0.5 -1,-0.25 -1.46875,0.25 1,0.75 0.25,0.96875 -1,-1.21875 0.75,1.21875 -0.25,-0.25 -0.25,0.5 -0.5,-0.5 -0.25,1 -0.46875,-1.25 -0.5,0.75 1.21875,3.4375 h -0.46875 l -0.25,-1.21875 -1.25,-1.25 v 1.96875 l -0.71875,0.75 0.5,-1 -0.5,-0.71875 0.5,-0.25 -0.25,-1.46875 0.71875,-1.71875 h -0.46875 l 0.96875,-0.25 -0.5,-0.75 0.5,-0.21875 -1.71875,-1.25 -0.25,0.5 -2.1875,-3.4375 -1.71875,-0.96875 -0.25,-1 -0.75,-0.21875 0.25,0.71875 -0.71875,-0.71875 -0.5,0.46875 v -0.46875 l -0.5,0.46875 -0.5,-1.21875 z" /><path
       inkscape:connector-curvature="0"
       style="fill:#cccccc;fill-opacity:1;stroke:none"
       id="path5265"
       d="m 94.56875,67.6 0.75,0.4375 -0.75,0.5 z" /></g><text
     transform="matrix(1.3333333,0,0,1.3333333,0,793.7008)"
     id="text4373"
     y="-91.644196"
     x="50.489246"
     style="font-style:normal;font-variant:normal;font-weight:500;font-stretch:normal;font-size:9.15976524px;line-height:0%;font-family:'Century Schoolbook L';-inkscape-font-specification:'Century Schoolbook L, Medium';text-align:start;letter-spacing:0px;word-spacing:0px;writing-mode:lr-tb;text-anchor:start;display:inline;fill:#000000;fill-opacity:1;stroke:none;stroke-width:0.76331377px;stroke-linecap:butt;stroke-linejoin:miter;stroke-opacity:1"
     xml:space="preserve"><tspan
       style="font-style:normal;font-variant:normal;font-weight:500;font-stretch:normal;font-size:22.89941216px;line-height:80.00000119%;font-family:'Century Schoolbook L';-inkscape-font-specification:'Century Schoolbook L, Medium';text-align:start;writing-mode:lr-tb;text-anchor:start;fill:#000000;fill-opacity:1;stroke-width:0.76331377px"
       y="-91.644196"
       x="50.489246"
       id="tspan4375"
       sodipodi:role="line">Wiki</tspan><tspan
       id="tspan4377"
       style="font-style:normal;font-variant:normal;font-weight:500;font-stretch:normal;font-size:22.89941216px;line-height:80.00000119%;font-family:'Century Schoolbook L';-inkscape-font-specification:'Century Schoolbook L, Medium';text-align:start;writing-mode:lr-tb;text-anchor:start;fill:#000000;fill-opacity:1;stroke-width:0.76331377px"
       y="-73.324669"
       x="50.489246"
       sodipodi:role="line">Club</tspan><tspan
       id="tspan4379"
       style="font-style:normal;font-variant:normal;font-weight:500;font-stretch:normal;font-size:22.89941216px;line-height:80.00000119%;font-family:'Century Schoolbook L';-inkscape-font-specification:'Century Schoolbook L, Medium';text-align:start;writing-mode:lr-tb;text-anchor:start;fill:#000000;fill-opacity:1;stroke-width:0.76331377px"
       y="-55.005135"
       x="50.489246"
       sodipodi:role="line">West</tspan></text>
<text
     id="text1043"
     y="669.80945"
     x="338.78061"
     style="font-style:normal;font-variant:normal;font-weight:normal;font-stretch:normal;font-size:13.33333302px;line-height:126.99999809%;font-family:serif;-inkscape-font-specification:'serif, Normal';font-variant-ligatures:normal;font-variant-caps:normal;font-variant-numeric:normal;font-feature-settings:normal;text-align:end;letter-spacing:0px;word-spacing:0px;writing-mode:lr-tb;text-anchor:end;fill:#000000;fill-opacity:1;stroke:none;stroke-width:1px;stroke-linecap:butt;stroke-linejoin:miter;stroke-opacity:1"
     xml:space="preserve"><tspan
       y="681.73969"
       x="338.78061"
       id="tspan1041"
       sodipodi:role="line" /><tspan
       id="tspan1055"
       style="font-style:normal;font-variant:normal;font-weight:normal;font-stretch:normal;font-size:13.33333302px;line-height:126.99999809%;font-family:serif;-inkscape-font-specification:'serif, Normal';font-variant-ligatures:normal;font-variant-caps:normal;font-variant-numeric:normal;font-feature-settings:normal;text-align:end;writing-mode:lr-tb;text-anchor:end"
       y="698.67297"
       x="338.78061"
       sodipodi:role="line" /><tspan
       id="tspan1057"
       style="font-style:normal;font-variant:normal;font-weight:normal;font-stretch:normal;font-size:13.33333302px;line-height:126.99999809%;font-family:serif;-inkscape-font-specification:'serif, Normal';font-variant-ligatures:normal;font-variant-caps:normal;font-variant-numeric:normal;font-feature-settings:normal;text-align:end;writing-mode:lr-tb;text-anchor:end"
       y="715.60632"
       x="338.78061"
       sodipodi:role="line" /><tspan
       style="font-style:normal;font-variant:normal;font-weight:normal;font-stretch:normal;font-size:13.33333302px;line-height:126.99999809%;font-family:serif;-inkscape-font-specification:'serif, Normal';font-variant-ligatures:normal;font-variant-caps:normal;font-variant-numeric:normal;font-feature-settings:normal;text-align:end;writing-mode:lr-tb;text-anchor:end"
       id="tspan1047"
       y="732.53967"
       x="338.78061"
       sodipodi:role="line" /><tspan
       id="tspan1105"
       style="font-style:normal;font-variant:normal;font-weight:normal;font-stretch:normal;font-size:13.33333302px;line-height:126.99999809%;font-family:Montserrat;-inkscape-font-specification:Montserrat;font-variant-ligatures:normal;font-variant-caps:normal;font-variant-numeric:normal;font-feature-settings:normal;text-align:end;writing-mode:lr-tb;text-anchor:end"
       y="749.93066"
       x="338.78061"
       sodipodi:role="line">www.wikiclubwest.org.au</tspan></text>
<text
     id="text1063"
     y="661.94189"
     x="252.34834"
     style="font-style:normal;font-variant:normal;font-weight:normal;font-stretch:normal;font-size:10.66666698px;line-height:100%;font-family:Montserrat;-inkscape-font-specification:'Montserrat, Normal';font-variant-ligatures:normal;font-variant-caps:normal;font-variant-numeric:normal;font-feature-settings:normal;text-align:center;letter-spacing:0px;word-spacing:0px;writing-mode:lr-tb;text-anchor:middle;fill:#000000;fill-opacity:1;stroke:none;stroke-width:1px;stroke-linecap:butt;stroke-linejoin:miter;stroke-opacity:1"
     xml:space="preserve"><tspan
       y="661.94189"
       x="252.34834"
       id="tspan1099"
       sodipodi:role="line">Western Australian branch</tspan></text>
<g
     inkscape:label="Wikimedia Australia logo"
     transform="translate(151.18327,582.76167)"
     id="wmau-logo">
	<g
   id="g1292">
		<g
   id="g1270">
			<path
   inkscape:connector-curvature="0"
   d="m 62.498,52.061 1.817,-5.893 h 2.382 l 1.801,5.893 2.031,-5.893 h 2.473 L 69.43,56.412 h -1.695 l -2.244,-7.131 -2.229,7.131 H 61.567 L 57.994,46.168 h 2.474 z"
   id="path1252" />
			<path
   inkscape:connector-curvature="0"
   d="m 74.238,46.168 h 2.29 v 10.244 h -2.29 z"
   id="path1254" />
			<path
   inkscape:connector-curvature="0"
   d="m 79.047,46.168 h 2.29 v 4.213 L 85.2,46.168 h 2.824 l -4.076,4.533 c 0.351,0.488 1.007,1.404 1.954,2.732 0.946,1.328 1.649,2.322 2.122,2.979 H 85.352 L 82.36,52.365 81.337,53.51 v 2.902 h -2.29 z"
   id="path1256" />
			<path
   inkscape:connector-curvature="0"
   d="m 89.444,46.168 h 2.29 v 10.244 h -2.29 z"
   id="path1258" />
			<path
   inkscape:connector-curvature="0"
   d="m 103.43,49.969 -2.764,5.604 h -1.375 l -2.748,-5.604 v 6.443 h -2.29 V 46.168 h 3.099 l 2.641,5.633 2.657,-5.633 h 3.084 v 10.244 h -2.291 v -6.443 z"
   id="path1260" />
			<path
   inkscape:connector-curvature="0"
   d="m 115.627,46.168 v 2.029 h -5.1 v 2.107 h 4.58 v 1.955 h -4.58 v 2.121 h 5.252 v 2.016 h -7.541 V 46.152 h 7.389 z"
   id="path1262" />
			<path
   inkscape:connector-curvature="0"
   d="m 125.643,47.51 c 0.977,0.902 1.465,2.139 1.465,3.727 0,1.588 -0.473,2.855 -1.434,3.785 -0.947,0.932 -2.412,1.391 -4.367,1.391 h -3.496 V 46.168 h 3.619 c 1.845,0 3.236,0.457 4.213,1.342 z m -1.68,6.092 c 0.564,-0.533 0.84,-1.297 0.84,-2.305 0,-1.008 -0.275,-1.787 -0.84,-2.32 -0.564,-0.551 -1.42,-0.809 -2.58,-0.809 H 120.1 v 6.229 h 1.451 c 1.053,-10e-4 1.863,-0.26 2.412,-0.795 z"
   id="path1264" />
			<path
   inkscape:connector-curvature="0"
   d="m 129.094,46.168 h 2.289 v 10.244 h -2.289 z"
   id="path1266" />
			<path
   inkscape:connector-curvature="0"
   d="m 141.199,56.412 -0.945,-2.215 h -4.291 l -0.947,2.215 h -2.426 l 4.426,-10.244 h 2.215 l 4.428,10.244 z m -3.099,-7.191 -1.281,2.977 h 2.564 z"
   id="path1268" />
		</g>
		<g
   id="g1290">
			<path
   inkscape:connector-curvature="0"
   d="m 71.29,66.154 -0.372,-0.898 h -2.052 l -0.372,0.898 H 67.66 l 1.842,-4.242 h 0.834 l 1.818,4.242 z m -2.136,-1.593 h 1.476 l -0.732,-1.783 z"
   id="path1272" />
			<path
   inkscape:connector-curvature="0"
   d="m 77.512,65.195 c 0.188,0.191 0.44,0.285 0.756,0.285 0.316,0 0.565,-0.094 0.747,-0.285 0.182,-0.189 0.273,-0.451 0.273,-0.787 v -2.496 h 0.804 v 2.496 c 0,0.367 -0.074,0.688 -0.222,0.961 -0.148,0.271 -0.359,0.48 -0.633,0.627 -0.274,0.145 -0.597,0.219 -0.969,0.219 -0.376,0 -0.703,-0.074 -0.981,-0.219 C 77.009,65.85 76.796,65.641 76.648,65.369 76.5,65.096 76.426,64.775 76.426,64.408 v -2.496 h 0.804 v 2.496 c 0,0.336 0.094,0.598 0.282,0.787 z"
   id="path1274" />
			<path
   inkscape:connector-curvature="0"
   d="m 86.977,62.693 c -0.226,-0.072 -0.425,-0.109 -0.597,-0.109 -0.192,0 -0.344,0.037 -0.456,0.109 -0.112,0.072 -0.168,0.174 -0.168,0.303 0,0.117 0.039,0.215 0.117,0.295 0.078,0.078 0.176,0.143 0.294,0.193 0.118,0.051 0.279,0.105 0.483,0.166 0.284,0.086 0.517,0.17 0.699,0.256 0.182,0.084 0.337,0.209 0.465,0.375 0.128,0.166 0.192,0.383 0.192,0.654 0,0.258 -0.069,0.484 -0.207,0.676 -0.138,0.192 -0.328,0.338 -0.57,0.439 -0.242,0.102 -0.519,0.15 -0.831,0.15 -0.328,0 -0.648,-0.061 -0.96,-0.184 -0.312,-0.123 -0.584,-0.289 -0.816,-0.494 l 0.336,-0.691 c 0.212,0.199 0.45,0.354 0.714,0.467 0.264,0.113 0.51,0.17 0.738,0.17 0.224,0 0.4,-0.043 0.528,-0.131 0.128,-0.086 0.192,-0.205 0.192,-0.354 0,-0.121 -0.039,-0.221 -0.117,-0.301 -0.078,-0.078 -0.177,-0.143 -0.297,-0.191 -0.12,-0.047 -0.284,-0.102 -0.492,-0.162 -0.284,-0.086 -0.516,-0.168 -0.696,-0.25 -0.18,-0.08 -0.334,-0.201 -0.462,-0.365 -0.128,-0.164 -0.192,-0.379 -0.192,-0.646 0,-0.246 0.065,-0.461 0.195,-0.645 0.13,-0.184 0.314,-0.326 0.552,-0.428 0.238,-0.102 0.513,-0.15 0.825,-0.15 0.272,0 0.541,0.039 0.807,0.121 0.266,0.08 0.503,0.189 0.711,0.326 l -0.324,0.709 c -0.216,-0.132 -0.437,-0.235 -0.663,-0.308 z"
   id="path1276" />
			<path
   inkscape:connector-curvature="0"
   d="m 92.26,61.912 h 3.426 v 0.721 h -1.308 v 3.521 h -0.81 V 62.633 H 92.26 Z"
   id="path1278" />
			<path
   inkscape:connector-curvature="0"
   d="m 102.844,66.154 -0.727,-1.256 c -0.031,0.004 -0.082,0.006 -0.15,0.006 h -0.947 v 1.25 h -0.804 v -4.242 h 1.751 c 0.545,0 0.965,0.127 1.26,0.381 0.297,0.256 0.445,0.615 0.445,1.078 0,0.332 -0.072,0.615 -0.213,0.85 -0.143,0.234 -0.35,0.41 -0.621,0.527 l 0.924,1.406 z m -1.824,-1.965 h 0.947 c 0.305,0 0.537,-0.066 0.697,-0.199 0.16,-0.133 0.24,-0.332 0.24,-0.594 0,-0.258 -0.08,-0.453 -0.24,-0.582 -0.16,-0.129 -0.393,-0.193 -0.697,-0.193 h -0.947 z"
   id="path1280" />
			<path
   inkscape:connector-curvature="0"
   d="m 111.621,66.154 -0.371,-0.898 h -2.053 l -0.371,0.898 h -0.834 l 1.842,-4.242 h 0.834 l 1.816,4.242 z m -2.137,-1.593 h 1.477 l -0.732,-1.783 z"
   id="path1282" />
			<path
   inkscape:connector-curvature="0"
   d="m 116.955,61.912 h 0.805 v 3.508 h 1.811 v 0.734 h -2.615 v -4.242 z"
   id="path1284" />
			<path
   inkscape:connector-curvature="0"
   d="m 124.162,61.912 h 0.803 v 4.242 h -0.803 z"
   id="path1286" />
			<path
   inkscape:connector-curvature="0"
   d="m 133.066,66.154 -0.373,-0.898 h -2.051 l -0.373,0.898 h -0.834 l 1.842,-4.242 h 0.834 l 1.818,4.242 z m -2.136,-1.593 h 1.477 l -0.732,-1.783 z"
   id="path1288" />
		</g>
	</g>
	<g
   id="g1301">
		<path
   inkscape:connector-curvature="0"
   d="m 102.391,33.435 c 5.48,-0.779 9.695,-5.481 9.695,-11.191 0,-3.465 -1.559,-6.565 -4.016,-8.626 l -5.695,5.695 v 14.122 z"
   id="path1294" />
		<path
   inkscape:connector-curvature="0"
   d="M 99.2,33.435 V 19.312 l -5.695,-5.695 c -2.458,2.077 -4.015,5.176 -4.015,8.626 0.015,5.695 4.229,10.413 9.71,11.192 z"
   id="path1296" />
		<path
   inkscape:connector-curvature="0"
   d="m 110.619,12.427 c 2.627,2.626 4.062,6.107 4.062,9.817 0,3.71 -1.451,7.191 -4.062,9.817 -2.625,2.626 -6.105,4.061 -9.816,4.061 -3.709,0 -7.19,-1.45 -9.816,-4.061 -2.626,-2.611 -4.061,-6.107 -4.061,-9.817 0,-3.71 1.45,-7.191 4.061,-9.816 0.229,-0.229 0.458,-0.443 0.687,-0.642 L 88.498,8.61 c -0.229,0.213 -0.458,0.427 -0.687,0.656 -1.679,1.68 -3.007,3.649 -3.939,5.832 -0.961,2.26 -1.45,4.672 -1.45,7.145 0,2.474 0.489,4.886 1.45,7.145 0.932,2.183 2.245,4.153 3.939,5.832 1.68,1.68 3.649,3.008 5.832,3.939 2.26,0.961 4.672,1.449 7.145,1.449 2.475,0 4.887,-0.488 7.145,-1.449 2.184,-0.932 4.154,-2.244 5.834,-3.939 1.678,-1.679 3.006,-3.649 3.938,-5.832 0.963,-2.259 1.451,-4.671 1.451,-7.145 0,-2.473 -0.488,-4.885 -1.451,-7.145 -0.932,-2.183 -2.244,-4.152 -3.938,-5.832 -0.23,-0.229 -0.459,-0.443 -0.688,-0.656 l -3.176,3.175 c 0.259,0.199 0.488,0.413 0.716,0.642 z"
   id="path1298" />
		<circle
   id="red_circle_1_"
   cx="100.803"
   cy="9.5109997"
   r="5.7249999" />
	</g>
</g><image
     sodipodi:absref="/home/sam/code/wikimedia/WikiClubWest/2018/website-qr-code.png"
     xlink:href="website-qr-code.png"
     width="46.043156"
     height="46.043156"
     preserveAspectRatio="none"
     id="image1014"
     x="228.98819"
     y="691.11871" /></g><use
   x="0"
   y="0"
   inkscape:tiled-clone-of="#g1039"
   xlink:href="#g1039"
   transform="translate(0,206.3746)"
   id="use4746"
   width="100%"
   height="100%" /><use
   x="0"
   y="0"
   inkscape:tiled-clone-of="#g1039"
   xlink:href="#g1039"
   transform="translate(0,416.04328)"
   id="use4748"
   width="100%"
   height="100%" /><use
   x="0"
   y="0"
   inkscape:tiled-clone-of="#g1039"
   xlink:href="#g1039"
   transform="translate(341.44169)"
   id="use4750"
   width="100%"
   height="100%" /><use
   x="0"
   y="0"
   inkscape:tiled-clone-of="#g1039"
   xlink:href="#g1039"
   transform="translate(341.44169,206.3746)"
   id="use4752"
   width="100%"
   height="100%" /><use
   x="0"
   y="0"
   inkscape:tiled-clone-of="#g1039"
   xlink:href="#g1039"
   transform="translate(341.44169,416.04328)"
   id="use4754"
   width="100%"
   height="100%" /><use
   x="0"
   y="0"
   inkscape:tiled-clone-of="#g1039"
   xlink:href="#g1039"
   transform="translate(684.17748)"
   id="use4756"
   width="100%"
   height="100%" /><use
   x="0"
   y="0"
   inkscape:tiled-clone-of="#g1039"
   xlink:href="#g1039"
   transform="translate(684.17748,206.3746)"
   id="use4758"
   width="100%"
   height="100%" /><use
   x="0"
   y="0"
   inkscape:tiled-clone-of="#g1039"
   xlink:href="#g1039"
   transform="translate(684.17748,416.04328)"
   id="use4760"
   width="100%"
   height="100%" /></svg>